<?xml version="1.0" standalone="no"?>
<!DOCTYPE svg PUBLIC "-//W3C//DTD SVG 20010904//EN"
 "http://www.w3.org/TR/2001/REC-SVG-20010904/DTD/svg10.dtd">
<svg version="1.0" xmlns="http://www.w3.org/2000/svg"
 width="775.000000pt" height="209.000000pt" viewBox="0 0 775.000000 209.000000"
 preserveAspectRatio="xMidYMid meet">

<g transform="translate(0.000000,209.000000) scale(0.100000,-0.100000)"
fill="#000000" stroke="none">
<path d="M2959 1627 c-66 -19 -105 -51 -125 -102 -18 -49 -14 -114 11 -152 23
-34 91 -69 185 -94 88 -23 130 -52 130 -89 0 -17 6 -20 50 -20 48 0 50 1 50
28 0 15 -9 45 -19 68 -21 47 -80 81 -200 115 -114 32 -147 78 -97 136 22 25
30 28 88 27 45 0 78 -7 112 -23 51 -25 54 -24 86 30 28 48 -171 103 -271 76z"/>
<path d="M3390 1395 l0 -225 50 0 50 0 0 55 0 55 145 0 145 0 0 45 0 45 -145
0 -145 0 0 80 0 80 160 0 160 0 0 45 0 45 -210 0 -210 0 0 -225z"/>
<path d="M3960 1395 l0 -225 45 0 45 0 0 55 0 55 145 0 145 0 0 45 0 45 -145
0 -145 0 0 80 0 80 165 0 165 0 0 45 0 45 -210 0 -210 0 0 -225z"/>
<path d="M4520 1427 c0 -107 3 -209 6 -226 6 -29 9 -31 50 -31 l44 0 0 180 0
180 89 0 c131 0 200 -31 236 -107 26 -54 24 -156 -4 -211 l-21 -42 54 0 c51 0
54 2 67 33 9 19 14 69 14 127 0 107 -16 149 -77 207 -67 64 -114 77 -295 81
l-163 4 0 -195z"/>
<path d="M45 1278 c-14 -42 -25 -146 -25 -239 0 -192 45 -374 131 -526 61
-107 215 -262 323 -322 97 -55 244 -105 355 -121 125 -19 357 -8 446 20 82 26
197 80 193 91 -5 14 -313 251 -353 271 -22 12 -69 49 -105 83 -59 56 -944 755
-956 755 -2 0 -7 -6 -9 -12z"/>
</g>
</svg>
